<?xml version="1.0" encoding="UTF-8"?>
<svg width="40" height="40" viewBox="0 0 40 40" fill="none" xmlns="http://www.w3.org/2000/svg">
  <circle cx="20" cy="20" r="20" fill="#4F46E5"/>
  <path d="M20 10C17.7909 10 16 11.7909 16 14C16 16.2091 17.7909 18 20 18C22.2091 18 24 16.2091 24 14C24 11.7909 22.2091 10 20 10Z" fill="white"/>
  <path d="M12 26.5C12 23.4624 14.4624 21 17.5 21H22.5C25.5376 21 28 23.4624 28 26.5V28C28 29.1046 27.1046 30 26 30H14C12.8954 30 12 29.1046 12 28V26.5Z" fill="white"/>
</svg>
